<?xml version="1.0" standalone="no"?>
<!DOCTYPE svg PUBLIC "-//W3C//DTD SVG 20010904//EN"
 "http://www.w3.org/TR/2001/REC-SVG-20010904/DTD/svg10.dtd">
<svg version="1.0" xmlns="http://www.w3.org/2000/svg"
 width="693.000000pt" height="693.000000pt" viewBox="0 0 693.000000 693.000000"
 preserveAspectRatio="xMidYMid meet">
<metadata>
Created by potrace 1.14, written by Peter Selinger 2001-2017
</metadata>
<g transform="translate(0.000000,693.000000) scale(0.100000,-0.100000)"
fill="#000000" stroke="none">
<path d="M3328 6205 c-2 -1 -39 -5 -83 -9 -100 -8 -232 -29 -375 -62 -87 -19
-326 -98 -394 -129 -49 -22 -102 -44 -116 -48 -3 0 -35 -18 -72 -39 -37 -21
-69 -38 -72 -38 -16 0 -286 -174 -333 -214 -7 -6 -18 -15 -25 -21 -184 -142
-343 -300 -482 -479 -74 -94 -176 -241 -176 -252 0 -4 -6 -15 -14 -23 -24 -26
-150 -279 -193 -386 -38 -94 -100 -277 -108 -321 -2 -10 -4 -20 -5 -21 -2 -2
-3 -6 -4 -10 -10 -42 -17 -72 -21 -93 -3 -14 -11 -59 -19 -100 -33 -171 -39
-245 -40 -485 -1 -186 5 -292 19 -375 2 -14 7 -45 10 -70 16 -123 81 -385 122
-490 4 -8 7 -17 8 -20 1 -3 5 -14 10 -25 4 -11 14 -36 22 -55 30 -77 40 -98
89 -200 191 -394 494 -750 869 -1021 50 -36 106 -74 125 -85 19 -10 37 -21 40
-24 9 -9 83 -49 182 -100 220 -113 447 -190 696 -240 186 -36 286 -45 517 -45
228 0 359 11 485 39 14 3 39 8 55 10 17 3 50 10 75 16 25 7 56 14 69 16 13 3
31 9 40 13 9 5 18 9 21 9 15 -2 139 39 240 79 454 178 873 496 1171 890 140
185 279 430 361 638 59 148 116 334 133 435 3 19 11 55 16 80 18 75 23 110 36
245 15 144 7 559 -12 650 -3 11 -7 36 -10 55 -4 32 -7 47 -19 113 -39 207
-132 479 -233 680 -221 442 -564 828 -963 1082 -41 26 -86 55 -100 64 -73 50
-440 219 -440 204 0 -3 -6 -1 -12 5 -12 9 -157 57 -203 66 -11 3 -56 14 -100
25 -44 11 -100 23 -125 26 -24 4 -47 8 -50 10 -3 2 -32 6 -65 10 -33 3 -73 8
-90 11 -33 5 -452 14 -457 9z"/>
</g>
</svg>
